<?xml version="1.0" encoding="UTF-8" standalone="no"?>
<!-- Created with Inkscape (http://www.inkscape.org/) -->

<svg
   xmlns:dc="http://purl.org/dc/elements/1.1/"
   xmlns:cc="http://creativecommons.org/ns#"
   xmlns:rdf="http://www.w3.org/1999/02/22-rdf-syntax-ns#"
   xmlns:svg="http://www.w3.org/2000/svg"
   xmlns="http://www.w3.org/2000/svg"
   xmlns:xlink="http://www.w3.org/1999/xlink"
   xmlns:sodipodi="http://sodipodi.sourceforge.net/DTD/sodipodi-0.dtd"
   xmlns:inkscape="http://www.inkscape.org/namespaces/inkscape"
   width="67.73333mm"
   height="67.73333mm"
   viewBox="0 0 67.73333 67.73333"
   version="1.1"
   id="svg8"
   inkscape:version="0.92.4 (5da689c313, 2019-01-14)"
   sodipodi:docname="sxc-plus-logo.svg"
   inkscape:export-filename="C:\Users\e.lorenzetti.IOL\Documents\GitHub\sxc-plus-chrome-extension\img\sxc-plus-logo-48x48.png"
   inkscape:export-xdpi="18.000002"
   inkscape:export-ydpi="18.000002">
  <defs
     id="defs2">
    <linearGradient
       inkscape:collect="always"
       id="linearGradient843">
      <stop
         style="stop-color:#e66400;stop-opacity:1"
         offset="0"
         id="stop839" />
      <stop
         style="stop-color:#ffc832;stop-opacity:1"
         offset="1"
         id="stop841" />
    </linearGradient>
    <linearGradient
       inkscape:collect="always"
       xlink:href="#linearGradient843"
       id="linearGradient845"
       x1="34.076866"
       y1="231.38533"
       x2="34.076866"
       y2="294.99548"
       gradientUnits="userSpaceOnUse"
       gradientTransform="matrix(3.7795276,0,0,3.7795276,0,-866.51966)" />
  </defs>
  <sodipodi:namedview
     id="base"
     pagecolor="#ffffff"
     bordercolor="#666666"
     borderopacity="1.0"
     inkscape:pageopacity="0.0"
     inkscape:pageshadow="2"
     inkscape:zoom="1.979899"
     inkscape:cx="49.027332"
     inkscape:cy="179.60418"
     inkscape:document-units="mm"
     inkscape:current-layer="g4690"
     showgrid="false"
     inkscape:window-width="1920"
     inkscape:window-height="986"
     inkscape:window-x="-11"
     inkscape:window-y="-11"
     inkscape:window-maximized="1" />
  <metadata
     id="metadata5">
    <rdf:RDF>
      <cc:Work
         rdf:about="">
        <dc:format>image/svg+xml</dc:format>
        <dc:type
           rdf:resource="http://purl.org/dc/dcmitype/StillImage" />
        <dc:title />
      </cc:Work>
    </rdf:RDF>
  </metadata>
  <g
     inkscape:label="SXC"
     inkscape:groupmode="layer"
     id="layer1"
     transform="translate(0,-229.26667)"
     style="display:inline"
     sodipodi:insensitive="true">
    <path
       style="fill:url(#linearGradient845);fill-opacity:1;stroke-width:0.99999994"
       d="M 128,7 A 121,121 0 0 0 58.681641,29 H 197.46094 A 121,121 0 0 0 128,7 Z M 34.730469,51 A 121,121 0 0 0 20.363281,73 H 235.56445 A 121,121 0 0 0 221.21484,51 Z M 11.685547,95 A 121,121 0 0 0 7.609375,117 H 248.40039 a 121,121 0 0 0 -4.14258,-22 z m -4.1347658,44 a 121,121 0 0 0 4.1640628,22 H 244.27539 a 121,121 0 0 0 4.125,-22 z M 20.375,183 a 121,121 0 0 0 14.556641,22 H 221.0957 a 121,121 0 0 0 14.56836,-22 z m 38.326172,44 A 121,121 0 0 0 128,249 121,121 0 0 0 197.35352,227 Z"
       transform="matrix(0.26458333,0,0,0.26458333,0,229.26667)"
       id="path14"
       inkscape:connector-curvature="0" />
  </g>
  <g
     inkscape:groupmode="layer"
     id="layer2"
     inkscape:label="PLUS"
     style="display:inline">
    <g
       id="g4690"
       transform="translate(33.3375,-0.26458604)">
      <g
         id="g4694"
         transform="translate(-0.52916667,0.26458333)">
        <path
           inkscape:connector-curvature="0"
           style="fill:#00c800;fill-opacity:1;stroke-width:0.99999994"
           d="m 54,124 c -5.540001,0 -10,4.46 -10,10 v 34 H 10 c -5.5400001,0 -10,4.46 -10,10 v 24 c 0,5.54 4.4599999,10 10,10 h 34 v 34 c 0,5.54 4.459999,10 10,10 h 24 c 5.539997,0 10,-4.46 10,-10 v -34 h 34 c 5.54,0 10,-4.46 10,-10 v -24 c 0,-5.54 -4.46,-10 -10,-10 H 88 v -34 c 0,-5.54 -4.460003,-10 -10,-10 z"
           transform="scale(0.26458333)"
           id="rect4661" />
      </g>
      <rect
         style="fill:#00fa00;fill-opacity:1;stroke-width:0.26458403"
         id="rect834"
         width="31.221001"
         height="7.9375"
         x="1.3229166"
         y="46.566666"
         rx="2.116678"
         ry="2.1166666" />
      <rect
         style="display:inline;fill:#00fa00;fill-opacity:1;stroke-width:0.26458403"
         id="rect834-5"
         width="31.221001"
         height="7.9375"
         x="34.924831"
         y="-20.902082"
         rx="2.116678"
         ry="2.1166666"
         transform="rotate(90)" />
    </g>
  </g>
</svg>
